<?xml version="1.0" encoding="UTF-8" standalone="no"?>
<svg width="55px" height="55px" viewBox="0 0 55 55" version="1.1" xmlns="http://www.w3.org/2000/svg" xmlns:xlink="http://www.w3.org/1999/xlink" xmlns:sketch="http://www.bohemiancoding.com/sketch/ns">
    <!-- Generator: Sketch 3.5.1 (25234) - http://www.bohemiancoding.com/sketch -->
    <title>Group 2</title>
    <desc>Created with Sketch.</desc>
    <defs></defs>
    <g id="Page-1" stroke="none" stroke-width="1" fill="none" fill-rule="evenodd" sketch:type="MSPage">
        <g id="Goals" sketch:type="MSArtboardGroup" transform="translate(-255.000000, -531.000000)">
            <g id="Group-2" sketch:type="MSLayerGroup" transform="translate(256.000000, 532.000000)">
                <g id="Oval-45-+-Page-1-Copy-5" transform="translate(0.294922, 0.694824)" stroke="#AAAAAA" stroke-width="2" sketch:type="MSShapeGroup">
                    <ellipse id="Oval-45" cx="26" cy="26" rx="26" ry="26"></ellipse>
                </g>
                <g id="run" transform="translate(14.660156, 11.844238)" fill="#AAAAAA" sketch:type="MSShapeGroup">
                    <path d="M19.0342385,13.0497115 L17.67465,10.7585532 L16.7556689,14.3715336 L19.8902757,20.0868407 L19.8902757,28.15625 L17.6242949,28.15625 L17.6242949,21.861859 L14.6911087,17.9467477 L12.6769035,23.6242885 L6.60911059,26.2679327 L5.28728847,24.3796154 L10.5619882,21.2701862 L13.7343612,8.85764708 L11.0781282,9.6885067 L11.0781282,14.3085897 L8.81214745,14.3085897 L8.81214745,7.76242304 L15.6352673,5.63491887 L16.2647064,5.53420861 C17.0452109,5.53420861 17.7250052,5.9622272 18.1026686,6.59166631 L20.620425,10.7837307 L25.1775641,10.7837307 L25.1775641,13.0497115 L19.0342385,13.0497115 L19.0342385,13.0497115 Z M18.8831731,5.24466662 C17.6242949,5.24466662 16.6171923,4.23756406 16.6171923,2.97868585 C16.6171923,1.71980764 17.6242949,0.712705078 18.8831731,0.712705078 C20.1420513,0.712705078 21.1491539,1.71980764 21.1491539,2.97868585 C21.1491539,4.23756406 20.1420513,5.24466662 18.8831731,5.24466662 L18.8831731,5.24466662 Z M6.29439104,11.7908333 L6.29439104,14.3085897 L2.51775641,14.3085897 C1.82249718,14.3085897 1.25887821,13.7449707 1.25887821,13.0497115 C1.25887821,12.3544523 1.82249718,11.7908333 2.51775641,11.7908333 L6.29439104,11.7908333 L6.29439104,11.7908333 Z M9.126867,16.8263461 L8.4974279,19.3441025 L3.77663462,19.3441025 C3.08137539,19.3441025 2.51775641,18.7804836 2.51775641,18.0852243 C2.51775641,17.3899651 3.08137539,16.8263461 3.77663462,16.8263461 L9.126867,16.8263461 L9.126867,16.8263461 Z M6.29439104,6.75532047 L6.29439104,9.27307689 L1.25887821,9.27307689 C0.563618972,9.27307689 0,8.70945792 0,8.01419868 C0,7.31893945 0.563618972,6.75532047 1.25887821,6.75532047 L6.29439104,6.75532047 L6.29439104,6.75532047 Z" id="Shape"></path>
                </g>
            </g>
        </g>
    </g>
</svg>