<?xml version="1.0" encoding="UTF-8" standalone="no"?>
<svg width="20px" height="21px" viewBox="0 0 20 21" version="1.1" xmlns="http://www.w3.org/2000/svg" xmlns:xlink="http://www.w3.org/1999/xlink" xmlns:sketch="http://www.bohemiancoding.com/sketch/ns">
    <!-- Generator: Sketch 3.5.1 (25234) - http://www.bohemiancoding.com/sketch -->
    <title>ic_chat_bubble_outline_black_24px</title>
    <desc>Created with Sketch.</desc>
    <defs></defs>
    <g id="Page-1" stroke="none" stroke-width="1" fill="none" fill-rule="evenodd" sketch:type="MSPage">
        <g id="News-Feed" sketch:type="MSArtboardGroup" transform="translate(-272.000000, -825.000000)">
            <g id="Card-1-Copy" sketch:type="MSLayerGroup" transform="translate(0.000000, 614.000000)">
                <g id="like80-+-ic_chat_bubble_outline_black_24px" transform="translate(270.000000, 209.820312)" sketch:type="MSShapeGroup">
                    <g id="ic_chat_bubble_outline_black_24px">
                        <g id="Group">
                            <path d="M0,0 L24,0 L24,24 L0,24 L0,0 L0,0 Z" id="Shape"></path>
                            <path d="M20,2 L4,2 C2.9,2 2,2.9 2,4 L2,22 L6,18 L20,18 C21.1,18 22,17.1 22,16 L22,4 C22,2.9 21.1,2 20,2 L20,2 Z M20,16 L6,16 L4,18 L4,4 L20,4 L20,16 L20,16 Z" id="Shape" fill="#FFFFFF"></path>
                        </g>
                    </g>
                </g>
            </g>
        </g>
    </g>
</svg>