<?xml version="1.0" encoding="UTF-8" standalone="no"?>
<svg width="25px" height="24px" viewBox="0 0 25 24" version="1.1" xmlns="http://www.w3.org/2000/svg" xmlns:xlink="http://www.w3.org/1999/xlink" xmlns:sketch="http://www.bohemiancoding.com/sketch/ns">
    <!-- Generator: Sketch 3.5.1 (25234) - http://www.bohemiancoding.com/sketch -->
    <title>like80</title>
    <desc>Created with Sketch.</desc>
    <defs></defs>
    <g id="Page-1" stroke="none" stroke-width="1" fill="none" fill-rule="evenodd" sketch:type="MSPage">
        <g id="News-Feed" sketch:type="MSArtboardGroup" transform="translate(-317.000000, -824.000000)" fill="#FFFFFF">
            <g id="Card-1-Copy" sketch:type="MSLayerGroup" transform="translate(0.000000, 614.000000)">
                <g id="like80-+-ic_chat_bubble_outline_black_24px" transform="translate(270.000000, 209.820312)" sketch:type="MSShapeGroup">
                    <g id="like80" transform="translate(47.000000, 1.000000)">
                        <g id="Capa_1">
                            <path d="M12.0613462,22.5469867 C11.8342774,22.5469867 11.6175241,22.4523856 11.4630546,22.2859687 L1.82209941,11.8948639 C1.8196185,11.8921872 1.81713758,11.8895104 1.81472196,11.8868336 C0.644449578,10.5910793 0,8.87389637 0,7.05153581 C0,5.22910997 0.644449578,3.51199231 1.81472196,2.21630329 L1.96122635,2.05412998 C3.15245591,0.73526402 4.74298176,0.00887905405 6.43986039,0.00887905405 C8.13673902,0.00887905405 9.72733015,0.73526402 10.918625,2.05419527 L12.0613462,3.31946047 L13.2040674,2.05426056 C14.395297,0.735329307 15.9858228,0.00894434122 17.6827667,0.00894434122 C19.3797106,0.00894434122 20.9702365,0.735329307 22.1615313,2.05432584 L22.3078399,2.21610743 C23.4783081,3.51212289 24.1227577,5.22924054 24.1227577,7.0516011 C24.1227577,8.87396166 23.4782428,10.5911446 22.3080357,11.8868336 C22.3056201,11.889641 22.3031392,11.8923177 22.3006583,11.8949945 L12.6596378,22.2860992 C12.5051683,22.4523204 12.2884149,22.5469867 12.0613462,22.5469867 L12.0613462,22.5469867 Z M3.02246917,10.7888341 L12.0613462,20.5309192 L21.1002232,10.7887688 C22.959928,8.72549865 22.9587529,5.37189299 21.0966324,3.3101897 L20.9504545,3.14840811 C20.0724074,2.17621698 18.9119281,1.64092753 17.6827667,1.64092753 C16.45354,1.64092753 15.2930607,2.17621698 14.4152748,3.14808167 L12.6670152,5.08384603 C12.5123499,5.25515954 12.2922669,5.35289443 12.0614768,5.35289443 C11.8306867,5.35289443 11.6106036,5.25515954 11.4558731,5.08384603 L9.70754814,3.14821225 C8.82969696,2.17628226 7.66928294,1.64099282 6.44005625,1.64099282 C5.21082956,1.64099282 4.05035025,2.17621698 3.17256436,3.14814696 L3.02605997,3.31032027 C1.16393953,5.37202356 1.16269907,8.72562922 3.02246917,10.7888341 L3.02246917,10.7888341 Z" id="Shape"></path>
                        </g>
                    </g>
                </g>
            </g>
        </g>
    </g>
</svg>